#!OML:ASF F:\VICON\USERDATA\INSTALL\rory3\rory3.ASF
:FULLY-SPECIFIED
:DEGREES
64
root -0.19579682785368163 17.513343559849197 36.36718663977579 0.48070980948819697 4.723615184191795 -2.862545213632151
lfemur -23.158352843819088 -0.7379303479443713 -23.99951586165913
ltibia 37.093068364615114
lfoot -9.67746961420836 -8.830882399766256
ltoes -0.08341298582303125
rfemur -3.958307110011809 -1.1593538292449237 27.242574661120187
rtibia 90.30356008324867
rfoot 15.76804171509071 -10.764048939358258
rtoes 13.439040860116718
lowerback 15.077354790556107 2.242471394413025 2.223728642378758
upperback -0.7042357172421303 3.479445121135982 0.49119189128592367
thorax -9.296177149438451 1.5476229287480887 -1.8074507500885777
lowerneck -19.427754202236112 -4.84155497254891 -2.4326606644989917
upperneck 14.600013977158467 -6.6739744750035355 3.824094118047202
head 7.916956895745077 -2.9094036817111264 0.910430703344091
lclavicle -2.0200645454120953e-15 1.5723887067664723e-15
lhumerus -62.73139453637318 -7.912356335543876 98.16761680431732
lradius 111.16201350154287
lwrist 31.080909890701417
lhand -25.47698882617686 2.6714067666111396
lfingers 7.12502
lthumb 1.0508394101898917 32.65936423571011
rclavicle -2.0200645454120953e-15 1.5723887067664723e-15
rhumerus -44.39303700889869 10.945965351038662 -98.54214703416423
rradius 105.04336758428883
rwrist -8.683272554587724
rhand -17.11915790292225 38.425976805052734
rfingers 7.12502
rthumb 9.120187312432016 9.256142013844856
65
root -0.24175124461290395 17.261468376535777 36.998517623872125 0.37916218225838083 4.728434900197472 -1.7880542149109289
lfemur -21.04336248726851 -1.3623128374066271 -25.429525349697776
ltibia 40.539568467945976
lfoot -14.5595549869572 -5.9907201822894205
ltoes 1.5818197339417228
rfemur -9.536157836504938 -2.991352218673696 24.66015447381426
rtibia 97.40591426795612
rfoot 13.803931648294787 -10.533705508511765
rtoes 13.6493388417598
lowerback 15.581917056068784 2.1027270207817055 0.8095669964187118
upperback -0.4418547509330748 3.020455857490105 0.12003422113526852
thorax -9.44580028749367 1.3856573300842354 -1.1484031955490952
lowerneck -19.821904714458313 -4.767911083526489 -2.342265188199782
upperneck 14.433645563445388 -6.619405389666335 3.968727198526937
head 7.911356986752128 -2.853661413308138 0.9582569376655296
lclavicle -2.0764003091570768e-15 1.5315265316215784e-15
lhumerus -58.489978224384444 -10.223984312901306 98.90451801713523
lradius 110.16335703972891
lwrist 31.71011366035519
lhand -25.890828162928354 3.287241043198841
lfingers 7.12502
lthumb 0.6511638773991486 33.27755160409791
rclavicle -2.0764003091570768e-15 1.5315265316215784e-15
rhumerus -45.49640880898599 9.37177719983745 -99.37844800621505
rradius 103.19445642095963
rwrist -8.248640777878038
rhand -17.152797446370357 38.27318323215265
rfingers 7.12502
rthumb 9.087680736573883 9.089311338689177
66
root -0.27525473619999913 17.043518905587526 37.746355888820624 0.5457826303169511 4.582910187974797 -0.7050784621257811
lfemur -18.379718157314425 -1.9494746260562617 -26.71451597895915
ltibia 43.60907259510219
lfoot -18.851560624097573 -2.734001634634339
ltoes 1.7074637948610345
rfemur -15.677903395524163 -4.496332974884201 22.324856223950757
rtibia 103.76083490172033
rfoot 12.006530310183342 -9.688432958663565
rtoes 14.064606595460491
lowerback 16.01685371494687 1.9870613311916212 -0.5286167682933611
upperback -0.2325860880311017 2.591413651121667 -0.22566328497452037
thorax -9.57872011028915 1.2363545822042643 -0.4757387237952565
lowerneck -20.310307798018428 -4.676882062126617 -2.250674984262263
upperneck 14.254037122856879 -6.529959397972944 4.111890219467981
head 7.915304087670281 -2.783264634616371 1.0065885347434604
lclavicle -1.8940060133203815e-15 1.6638231049642012e-15
lhumerus -53.60575899736013 -12.677965436330464 99.45066853269418
lradius 108.94936519546185
lwrist 32.316594712732346
lhand -26.183543065309266 3.700445764109287
lfingers 7.12502
lthumb 0.3684747069548866 33.69271258888808
rclavicle -1.8940060133203815e-15 1.6638231049642012e-15
rhumerus -46.737853235070695 7.836570570485423 -100.13083699285166
rradius 101.75573073280756
rwrist -8.067926653531345
rhand -17.090587799128034 38.184616352429096
rfingers 7.12502
rthumb 9.14769141413177 8.98496957707706
67
root -0.2993129525622252 16.879788493279552 38.19662910918164 0.8954019777194562 4.275285973556611 0.1316009524468118
lfemur -15.550850865217752 -2.4589774641235365 -27.70628595905905
ltibia 45.659604593411316
lfoot -22.123650165040463 0.18952309287641445
ltoes 0.352397048361631
rfemur -22.39485205815746 -5.68088421732163 20.5400077820935
rtibia 108.33110022101785
rfoot 10.114969697735143 -8.67297585479313
rtoes 14.021385641890946
lowerback 16.327195320893473 1.8270299667822651 -1.6636296030144904
upperback -0.11622166009039292 2.137448864416658 -0.4711832929684836
thorax -9.706507542970296 1.0714665447719316 0.13559630327392302
lowerneck -20.813252013251812 -4.564315851197177 -2.186435787410922
upperneck 14.052515131719195 -6.393533179765919 4.203277966583522
head 7.911701330909253 -2.6982941636571365 1.0447901214233988
lclavicle -1.941376676192302e-15 1.6294635999177439e-15
lhumerus -48.72889787240548 -14.99248269596725 99.69595553683634
lradius 107.69702571517348
lwrist 32.63731045971242
lhand -26.268275375188814 3.681939552962865
lfingers 7.12502
lthumb 0.2866552307981989 33.67684306856777
rclavicle -1.941376676192302e-15 1.6294635999177439e-15
rhumerus -48.282769535254864 6.482270227346167 -100.76762743391356
rradius 100.85754560644925
rwrist -8.320442258363915
rhand -16.949063644258892 38.151117123700466
rfingers 7.12502
rthumb 9.284266304980102 8.933727536535855
68
root -0.3083243872429336 16.793732839378603 38.83932157216716 1.3691161579160633 3.9388863498553235 0.6250933175350206
lfemur -12.336249002463042 -2.796847373565962 -28.18590666353098
ltibia 46.76685960060234
lfoot -23.859047840301297 2.342667453640039
ltoes -2.0609104618812832
rfemur -28.820328125265405 -6.506640434004371 19.611243017961513
rtibia 111.20153402608352
rfoot 8.317639293776526 -7.7231564421178
rtoes 13.366269056777039
lowerback 16.518684331488867 1.5994415250749583 -2.402286304120982
upperback -0.09514794057827491 1.6735557139783992 -0.5380377169205506
thorax -9.816076625882493 0.8906567221661434 0.7129937069783602
lowerneck -21.223503658232154 -4.381886792809431 -2.1439851251684794
upperneck 13.896507093056384 -6.142033184896035 4.2291734350198595
head 7.90547680973502 -2.5696773305606673 1.073206119124708
lclavicle -1.8328540323824e-15 1.7081786273617893e-15
lhumerus -44.109075536883886 -16.73044779769717 99.66361911154587
lradius 106.97570803512488
lwrist 32.756227643188076
lhand -26.129049625328154 3.2636779031357372
lfingers 7.12502
lthumb 0.421125746185945 33.262368505486634
rclavicle -1.8328540323824e-15 1.7081786273617893e-15
rhumerus -49.91853498352359 5.58060120388323 -101.18861490211897
rradius 100.69689985453252
rwrist -8.983767830065705
rhand -16.68966450247261 38.19411215973562
rfingers 7.12502
rthumb 9.534625883678626 8.961058122706081
